# xmcd CD database file
#
# Track frame offsets:
#	150
#	15354
#	30205
#	44126
#	59252
#	73607
#	82394
#	98912
#	115581
#	127900
#	151585
#	163265
#	173419
#	191925
#	207535
#	219405
#	231245
#	251018
#	271411
#	290397
#	303094
#	320277
#	332410
#
# Disc length: 4636 seconds
#
# Revision: 0
# Processed by: cddbd v1.5.2PL0 Copyright (c) Steve Scherf et al.
# Submitted via: CDex 1.70beta2
#
DISCID=3d121a17
DTITLE=Tio Barnabé - ao vivo - 2009
DYEAR=2009
DGENRE=Forró
TTITLE0=Amor na lua
TTITLE1=Medo de amar
TTITLE2=Poético olodum
TTITLE3=Passei a noite no forró
TTITLE4=Anjo protetor
TTITLE5=A natureza das coisas
TTITLE6=Preciso te Ver
TTITLE7=Ninar você
TTITLE8=Se eu morasse aqui pertinho
TTITLE9=Dança do ICE
TTITLE10=De frente pro mar
TTITLE11=Pescador de ilusões
TTITLE12=Versos simples
TTITLE13=Não grude não
TTITLE14=Quanto dura o amor
TTITLE15=Burguesinha
TTITLE16=Bebe negão (Part. Renato Fechine)
TTITLE17=As almas (Part. Renato Fechine)
TTITLE18=Beijar na boca
TTITLE19=Gemedeira
TTITLE20=Bota pra ferver
TTITLE21=Pega and não se apega
TTITLE22=Amor na lua
EXTD=YEAR: 2009
EXTT0=
EXTT1=
EXTT2=
EXTT3=
EXTT4=
EXTT5=
EXTT6=
EXTT7=
EXTT8=
EXTT9=
EXTT10=
EXTT11=
EXTT12=
EXTT13=
EXTT14=
EXTT15=
EXTT16=
EXTT17=
EXTT18=
EXTT19=
EXTT20=
EXTT21=
EXTT22=
PLAYORDER=
